<?xml version="1.0" encoding="utf-8"?>
<!-- Generator: Adobe Illustrator 26.4.1, SVG Export Plug-In . SVG Version: 6.00 Build 0)  -->
<svg version="1.1" id="Capa_1" xmlns="http://www.w3.org/2000/svg" xmlns:xlink="http://www.w3.org/1999/xlink" x="0px" y="0px"
	 viewBox="0 0 365.7 269.7" style="enable-background:new 0 0 365.7 269.7;" xml:space="preserve">
<g id="Capa_2_00000168117365737175152140000005795603427512777609_">
	<g id="Capa_1-2">
		<path d="M107.3,170.2c-10.6-7.6-13.8-17.9-13-30.2c-0.9-0.6-1.9-1.4-3-2.1c-2.5-1.4-4.9-2.9-7.3-4.6c-3-2.4-3.1-4.7-0.7-7.8
			l2.4-0.5c0.7-0.1,1.4-0.3,2.8-0.6c-0.4-1.1-0.6-2.2-1.2-2.8c-2.6-2.5-5.4-4.8-8.1-7.1c-1.5-1.3-3-2.5-4.7-4
			c2.7-4.1,6.6-4.9,10.5-5.4c3-0.4,6.2-0.6,9.5-0.9c-0.5-5.7-0.7-10.9,3.4-15V84l-10-3.2c-1.6-4.1-1.2-7.7-0.6-11.5
			c2.2-14.4,8.1-28,17.3-39.3c11.2-14,25.7-22.5,43-26.9c12.9-3.3,25.9-3.5,39-2.6c11.2,0.8,22.3,3.3,32.8,7.3
			c3,1.1,6.3,1.6,9.3,2.9c5.4,2.3,10.6,4.9,15.7,7.8c6.6,3.9,11.3,9.6,14.9,16.5c4.2,8,8.1,16,9.9,24.9c0.9,4.4,1.1,9-0.5,13.3
			c-0.8,2.2-2.3,4.2-4,7.1c1.5,6.1-2.5,11.6-5.5,17.2c0.6,2.5,2.2,2.8,4.1,2.2c1.2-0.4,2.2-1.1,3.4-1.6c4.3-1.6,8.6-3.4,13-4.6
			c4.2-1.1,6.9,1.3,6.6,5.6c-0.2,2.5-0.6,5-1.3,7.4c-0.9,3.5-0.4,7.3,1.4,10.5c1.4,2.6,2.6,5.4,3.7,8.1c0.7,1.8,0.8,3.8-0.8,5.2
			s-3.7,1-5.6,0.2c-2.2-0.9-4.4-1.6-6.5-2.4c-1.4,2.7-2.1,5.4-3.9,7.1s-4.3,2.2-6.8,3.4c0.6,11.1,0.7,22.4-8.8,31.5l47.5,1.4v0.8
			c-3.5,0.2-6.9,0.6-10.4,0.7c-13.5,0.3-27,0.5-40.5,0.9c-2.7,0.2-5.4,0.6-8,1.4c-3.5,0.8-6.9,1.9-10.1,3.4c1.3,0.1,2.5,0.2,3.8,0.2
			c13.9,0.1,27.7,0.2,41.6,0.4c13.2,0.2,26.5,0.5,39.7,0.9c2.7,0.1,5.4,0.4,8,1.1c-97.9,2.5-195.9,2.5-293.8,0
			c31.6-2.3,63.3-1.7,95-2.8c-6.8-1.1-12.9-4.4-20-4.5c-16-0.2-32-0.8-48-1.3c-0.8,0-1.7-0.2-2.5-0.3v-0.7L107.3,170.2z M119.6,19.6
			l-0.7,0.8c-1.2,0.7-2.3,1.5-3.3,2.3C104.4,32.6,97.3,45,92.7,59c-1.9,6.1-2.3,12.5-1.1,18.7l4.2,1c-0.9-3.2-1.2-6.6-0.7-9.9
			l6,11.5l2.6,0.1c-0.5-2.1-1.1-3.8-1.4-5.7s-0.3-3.8-0.5-5.7l1.1-0.3c0.7,5,3.1,9.5,6.8,13l2.7,0.3c-1.2-4.7-3.6-8.7-2.5-13.4
			c1.6,2.8,2.5,6,4.3,8.4s3.7,5.4,7.6,6.5c-0.9-3.2-1.6-5.7-2.3-8.1s-2.2-4.9-1-8.3c0.8,1.2,1.4,2.4,2,3.7c1.4,4.9,5,8.3,8.1,12
			c0.9,1.1,1.8,2.1,3.8,1.1c-0.4-1.3-0.7-2.5-1.2-3.8c-1.2-3-2.6-6-3.7-9c-0.4-1.5-0.7-3.1-0.9-4.7l-0.1,0.1
			c3.7,5.4,7.4,10.9,11.1,16.3c0.8,1.2,1.5,2.7,3.9,1.5c-1.2-3.2-2.4-6.4-3.6-9.7l-3.4-9.4l0.9-0.4c4,7.2,7.6,14.6,14,20.3
			c0.2-1.3,0-2.6-0.5-3.8c-2.1-4.6-4.3-9-6.3-13.6c-0.9-1.9-1.9-3.8-1.2-6.2c4.4,8.6,9,16.9,16.2,23.5c-0.7-5.2-1.7-10.2-4.2-14.9
			c-1.6-3-2.5-6.4-3.7-9.7l-0.1,0.1c2.5,3.9,4.9,7.9,7.4,11.8c2.6,4.1,5.3,8.1,8,12.1c0.2,0.3,0.6,0.4,1.3,0.8
			c-0.3-3.4-1.2-6.7-2.6-9.8c-2.8-5.8-6.1-11.4-7.4-17.9l-0.1,0.1c0.6,0.5,1.2,1,1.7,1.6c1.8,3.2,3.1,7,5.5,9.7
			c3.4,3.8,5.6,8.2,8.2,12.4c0.7,1.1,1.4,2.1,2.2,3.1l0.8-0.4c-0.4-1.5-0.8-3.1-1.2-4.6c-2.2-6.6-4.9-13.1-8.2-19.2
			c-0.8-1.9-1.4-3.9-1.9-5.9l-0.1,0.1c1.2,1.3,2.4,2.7,3.4,4.2c4.6,8.1,9.1,16.2,13.7,24.4c0.1,0.1,0.1,0.3,0.1,0.3
			c0.6,0.3,1.2,0.7,1.9,1l0.7-0.6c-0.8-2.9-1.3-6-2.5-8.8c-2.9-6.7-6.3-13.3-9.3-20c-0.5-1.3-0.8-2.7-1.1-4.1l1.1-0.5
			c1.9,3.6,3.7,7.3,5.5,10.9c1.1,2.2,2.1,4.5,3.4,6.6c1.8,2.8,3.9,5.4,5.8,8.2c1.3,2,2.5,4.1,3.9,5.9c0.6,0.8,1.8,1.1,2.7,1.6
			c0.3-0.6,0.3-1.4,0-2c-4.7-9.5-9.4-19-14.1-28.5c-0.8-1.7-1.4-3.4-2-5.2c8.4,11.4,14.3,24.2,23.9,34.6c0.2-0.6,0.1-1.2-0.1-1.8
			c-3.3-6.9-6.7-13.7-10-20.5c-2-4-4.1-8-6-12.1c-0.4-1.3-0.6-2.6-0.6-3.9h-0.1c4.4,7.2,8.8,14.5,13.2,21.8
			c3.3,5.4,6.8,10.7,10.2,16l3-0.4c-7.1-14.1-13.9-28-20.2-42.1c1.1,0.8,2.1,1.8,2.8,3c2.3,4.1,4.6,8.3,6.9,12.5
			c0.8,1.4,1.5,2.9,2.3,4.3c2.8,4.4,5.5,8.9,8.3,13.3c1.9,2.9,3.8,5.8,5.6,8.7l3-0.4c-1.1-4.7-3.5-8.4-5.5-12.4
			c-5.3-10.2-10.4-20.4-15.6-30.7l-0.1,0.1c1.7,1.8,3.3,3.7,4.8,5.7c3.9,6.4,7.4,13,11.5,19.3c3.7,5.6,7.9,10.9,12,16.2
			c0.6,0.8,1.8,1,2.8,1.5l0.8-0.8c-2.1-4.1-4-8.2-6.3-12.2c-5.7-10-11.5-19.8-17.2-29.8c-0.8-1.7-1.6-3.5-2.2-5.4l0.9-0.4
			c0.9,1.3,1.8,2.5,2.6,3.9c3.7,6.5,7.1,13.2,11.1,19.5c3.6,5.8,7.9,11.2,11.9,16.8c1.8,2.5,3.6,5,5.4,7.6l3.1-0.6l-16.7-30.9
			l0.7-0.7c0.8,0.5,1.7,1,2.4,1.6c2.7,2.4,3.7,5.9,5.6,8.7c4.7,7,9.9,13.8,14.9,20.6l2.6-0.5c-0.3-0.8-0.5-1.4-0.7-1.9
			c-1.9-6.5-6.1-11.7-9.6-17.3c-0.7-1.3-1.3-2.6-1.9-3.9c-1.9-2.9-3.8-5.7-5.5-8.5c-0.2-0.3,0.3-1.1,0.5-1.7l-0.1,0.1
			c0.7,0.3,1.6,0.4,1.9,0.9c2.2,2.8,4.4,5.7,6.5,8.6C244.6,62,250,69.5,255.6,77l2.4-0.7c-0.8-1.6-1.4-2.9-2.2-4.1
			c-3.6-6.4-7.4-12.8-10.9-19.2c-0.6-1.2-0.6-2.7-0.9-4.1l-0.1,0.1c0.9,0.4,1.8,1,2.5,1.7c1.3,1.5,2.3,3.2,3.5,4.9
			c2,2.9,3.7,5.9,5.9,8.6c2.6,3.2,5.6,6.2,8.4,9.2c0.2,0.2,0.7,0,1.7,0c-0.2-1.3-0.6-2.5-1-3.7c-2.5-4.3-5-8.6-7.8-12.8
			c-6.4-9.7-12.9-19.3-19.3-29c-1-1.5-1.8-3.2-2.7-4.8l0.9-0.6c2.5,3.1,5.2,6.1,7.4,9.3c5.4,7.8,10.5,15.8,16,23.6
			c1.6,2.3,3.9,4.1,5.9,6.2c0.1-4.7-1.8-8.4-4.3-11.6c-5.9-7.6-11.9-15.1-17.9-22.6c-1.5-1.9-3.4-3.7-2.4-6.7
			C222,10.1,202.1,4.8,181.3,3.2c-3.3,3.6-7.6,4.1-10.5,1.5c2.7,0.6,5.5,1.5,8.2-1.5c-19.8-0.4-38.2,2.3-55,13.2
			c1.2,2,1.4,3.9-0.4,5.4c-1.5,1.3-3.3,2-5.6,0.9l0.9-1c2.8,1.4,3.5-0.6,4.2-3l-2.7,0.8L119.6,19.6z M211.1,95.3
			c0.2-0.1,0.4-0.2,0.1-0.1C211.4,95,211.3,95.2,211.1,95.3l-0.3,0.6L211.1,95.3z M139.9,117.9l-0.2-0.2L139.9,117.9
			C140,118.2,140.1,118.5,139.9,117.9C140.4,118.3,140.1,118.1,139.9,117.9z M260.6,45.3l0.1,0L260.6,45.3l-0.7-1.7
			c-1.3-4.7-6-11.5-9.8-13.7c2.2,5.2,5.6,9.9,9.9,13.6C260.2,44.1,260.4,44.7,260.6,45.3z M205.9,131.3L205.9,131.3l-2.3-0.6
			c-2.4-1.8-4.6-4.3-8.3-2.7c-1.3,1.6-2.6,3.2-3.8,4.6l-3.5,0.4l-0.4,0.7l3.5,2l-0.6,0.7c-2.4-0.4-4.9-1.2-7.3-1.2s-5,0.7-7.8,1.1
			l1.8-2.2l-6,0.8l0.1,0.1l1.4-2l-4.8-1.2c-3.1-3-3.2-3.1-5.2-3l5.5,8.3c4.5,2.5,8.4-0.1,12.6-0.3c1.4,0.1,2.7,0.2,4.1,0.4
			c2.9,0.2,5.9,1.1,8.4-0.3c0.9-2.6,1.7-4.8,2.6-7.3c1.4-0.1,2.9-0.1,4.3,0c1.2,0.2,2.4,0.5,3.5,0.9L205.9,131.3z M230.2,128.6
			l3-1.2l-0.4-0.7L230.2,128.6l-1.6-0.1v0.4L230.2,128.6z M170,96.1L170,96.1l1.8,1.8c0.9-2.8-0.4-3.4-2.7-3.9
			C169.5,95.1,169.7,95.6,170,96.1z M235.8,93.7c0.5,1,1,1.9,1.8,3.4l1.7-4l-3.4,0.7V94L235.8,93.7z M221.9,91.9L221.9,91.9
			c2.5,1.5,1.9-1.2,3.1-2.2l-3.1-1.3C221.6,89.7,219.9,90.7,221.9,91.9L221.9,91.9z M257.7,92.3l-8.2,1.7c-0.1,0.9-0.1,1.7-0.3,3.2
			l2-1.3L251,96C253.8,95.9,256.2,95,257.7,92.3l0.3-0.5L257.7,92.3z M147.5,102.1l13.3-4.7l-0.1-0.9l-5.5,0.5
			c-1.1,0.4-2.2,1-3.2,1.7C150.6,100,147.9,99.7,147.5,102.1c-1.6,0-3.4-0.6-3.9,2.1L147.5,102.1z M109.2,98.3l2.9,1.8v-4.3
			l-2.2-0.4l-7.3-7.9C102.2,91.9,104.4,95.6,109.2,98.3L109.2,98.3z M248.8,138c0.2-0.8,0.4-1.6,0.7-2.7l-2.7-1.4l-0.7,0.7
			c0.9,1.2,1.7,2.3,2.5,3.5c0,0.4,0.1,0.7,0.3,1.1c3.6,5.8,7.3,11.6,11,17.3c0.5,0.5,1,1,1.6,1.4c-0.2-1.3-0.5-2.6-1-3.9
			c-2.8-5.1-5.6-10.2-8.5-15.4L248.8,138z M90.4,131.5l11.8-0.3l0.1-1l-9.7-2.6l-8.8,0.9c1.9,4.3,5.8,5.1,9.2,6.4
			c1,0.4,2.6,1.5,3.2-0.6L90.4,131.5L90.4,131.5z M204.7,114.4l-2.7-3.6l-3.1-0.9c-1.1-1.2,0.7-4.1-2.6-3.4
			c-0.2,3.6,3.9,4.4,4.4,7.5l-1.4,2.2C201.8,117,203.4,115.9,204.7,114.4c-0.3,2.1-0.5,4.3-2.6,5.7l-9.3-4.5l2.8-1.8
			c-0.6-3.4-3.8-2.6-5.7-4l0.5-2.5l-3.4,0.2l4.6,5.9l-2.1,3.1l-5.1-2.7l2.9-1.6l-6.1-3c0.2-0.4,0.4-1.1,0.8-2.1l-3.8,0.7l4.4,5.8
			l-8.8-2.5c0.1,1.4,0.2,2.5,0.3,3.8c4.6,3,7.2,8.7,13.9,8.4l-6.3-3.7l0.3-1.2c2.8,1.7,5.3-2.5,8.4,0.2v2.8l3.8,2.6l4.4-1.8
			c3,1.7,4.2,5,8.1,5.3c-1.9-2-3.4-3.6-4.9-5.2l0.7-1l8.7,4.9l0.8-2.4c-4.9-3.7-4.9-3.7-5.7-6c0.7,0.1,1.4,0.4,2,0.7
			c2.7,2,5.3,4,7.9,6.1h0.2l-0.3,0.1c0-0.8-0.1-1.7-0.3-2.5c-0.6-1.5,0-2.5,1.1-3.7l3.4,4.2l0.6-0.4l-1.3-3.8
			c-2.3-0.5-4.5-1.1-6.8-1.6C210.1,116.3,206.9,116.8,204.7,114.4z M109.2,114.1L109.2,114.1l0.4,1.2c-4.7-2-9.1,0-13.9,0l-5.6-3.8
			l0.2-0.7l6.8,1.4c-0.7-1.9-1.2-3.4-1.8-5c-5.6-0.2-11-0.8-16.1,2.3c5.3,1,9.4,4.1,13.6,6.8c1.8,1.4,4.3,1.7,6.4,0.7
			c4-1.8,7.5-0.7,10.7,2.2c0.8,0.8,1.7,1.5,2.6,2.1c2.5,1.6,4,1.3,6.4-1.2l-3.7-0.5l-0.1-0.7l56.8-16.7l-4.4-1.8l-1.5,1.3l-4.5-0.7
			l-0.4,2l-3.1-0.6l-7.3,3.4l-0.1-0.3l-5.4,1.7c-1.1-0.8-2.5,0.1-3.1,1.3c-1.4,0.1-2.7,0.3-4.1,0.7c-2.3,0.9-4.5,2.1-6.9,3
			c-3.1,1.1-6.3,2-9.5,3v0.1c6.7-3.7,13.4-7.4,20.2-11.1l-0.4-0.8l-7.6,3c-5.6,1.4-10.1,5.5-15.5,7.4l-0.6-0.8l8.9-6.6l-0.4-0.6
			c-2,1-3.9,2-6,2.8c-3.5,1.3-4.6,1.2-6,0.2l3.8-2.9c-3.2-0.5-5.8,1.8-8.7,0.5l2.2-2.7c-2,0.1-3.3,0.1-4.5,0.3
			c-1.4,0.2-2.8,0.5-4.3,0.8l0.1,0.1l3.3-2.6l-0.4-0.7l-4.6,0.4l1.7-2.8l-2-0.4l-1-4l-1,0.2c-1.2,6,0.5,11.6,2.7,16.6L109.2,114.1z
			 M262.9,123.9l1.8-0.6v1.9l4.4,1.3v0.6l-8,0.9l-0.3,0.6l4.1,2.6l-4.6,0.2c-2-3.4-3.9-6.8-5.6-9.7l0.5-4.8l-0.9-0.2l-1.2,3.2
			c-3.5-0.1-4,0.1-7,3.2c-4.6,4.8-7.3,4.6-10.8-0.9c1.5-3.3,1.4-3.7-1-5.4c-0.2,1.1-0.4,2.2-0.6,3.3l-5.5-2.7l-3.3,3
			c-1.2-1.5-0.4-4.3-3.4-3.9c0.8,2,1.5,3.8,2.3,5.8l-2,5l-9,3.8l0.7,1.3h-1.5l0.1,0.5l1.3-0.6l5-0.7l-2.3,3.1c2.5,0,4.7-1.4,5.9-3.6
			c1.3-2.2,2.6-4.5,3.8-6.8c2.2-4.1,4.5-4.4,7.9-1.2c0.7,0.7,1.4,1.5,2.1,2.1c2,1.8,4,3.6,6,5.5c2.8-3.4,6.2-6.2,9.9-8.5
			c4.4,3.1,3.7,8.9,7.5,12.5c3.9,0.5,7.8-0.3,11.2-2.2c2.8-1.6,3.8-4.3,3.9-7.5l-6.3-0.9v-0.9l11.2-2.1v0.7l5.1,3.1l-0.4,2l3,1.8
			l0.7-0.7c-0.9-4.4-2.1-8.6-7.3-10.3l2.4-1.3l-3.5-5.1l1.3-0.8c0.4-2,0.7-3.8,1.1-5.6l-1.1-1.3l3.5-3.2c-0.2-1.3-0.5-2.8-0.8-4.9
			c-7.8,1.2-13.2,6.9-20.9,8.1l1.8,3.3l1,0.3c0.5-1,0.9-2,1.6-3.4c0.7,1.5,1,2.2,1.5,3.3l3.3-2.1v0.6l4.5-0.3
			c-2.7,3.3-7.8,3.1-9.8,7l0.5,0.8l3.3-1.8l5.7,1.1c-3,2.5-8.3,0.9-10.5,5.7h10.1c-3,1.3-6.1,2.4-9.3,3.1c-1.5,0.4-3.4,0.6-3.1,2.9
			h-0.2L262.9,123.9z M143,174.7c0,0.1,0.1,0.2,0.1,0.3C143,175,143,174.9,143,174.7c-1.2-2.8-2.4-5.7-3.4-8.6
			c-0.6-1.9-1.3-3.9-0.2-6.1c1.4,7.6,7.4,11.7,11.9,17.3c1.4-5.9-4-9.7-3.3-15c3,6.7,8,11.4,13.7,15.5l0.7-0.4
			c-1.9-5-3.9-10-5.8-14.9l0.9-0.5c1.7,2.6,3.4,5.4,5.2,7.9s3.7,5.4,7.8,7.1l-4.5-12.6l-0.1,0.1c1,0.6,1.9,1.3,2.8,2.1
			c2.4,3,4.7,6.1,7.1,9.1c0.8,0.9,1.7,1.6,2.7,2.3l0.9-0.7l-5.6-14.7c4,3.5,7.2,7.7,9.5,12.5c0.7,1.5,1.5,2.8,4.2,2.6l-8.8-20.3
			l0.7-0.4c0.8,0.9,1.6,1.8,2.4,2.8c2.5,3.9,4.9,7.8,7.5,11.6c1.3,2,2.8,3.8,4.3,5.6c0.5,0.5,1.5,0.5,2.7,0.9
			c-4.3-9.7-8.1-18.8-12.3-27.7c-1.2-2.5-2.8-5.1-6-5.5c-0.2-1-0.4-1.9-0.7-3l-2.5,1.1l1,4.6l-0.8,0.3l-3.8-4.5
			c-5.3,0.3-7.1-3.5-8.9-7.4H160c0.5,2,0.9,3.7,1.5,6.2c-4.7-6.5-4.7-6.5-7.8-5.8c0.4,1.5,0.8,3.1,1.2,4.6l-0.4,0.2l-3.9-5.2h-3.8
			c0.2,1.6,0.5,2.9,0.8,5l-4.9-5.2l-3.3,0.3c-0.1,1-0.2,1.8-0.4,3.2l-2.9-3.6c-5.8,0-11.6,0.1-17.3,0c-4-0.1-8-0.5-12-0.5
			c-5.7-0.1-8.7,2.5-9.1,8.2c-0.3,2.9-0.2,5.7,0.2,8.6c0.4,3.7,2.3,7.2,5.3,9.5l-0.1-0.1c1.2,2.6,3.3,4,5.9,5.5
			c-2.3-8.3-2.3-8.4-0.6-12.2c0.3,0.9,0.5,1.6,0.8,2.2c1.8,4,3.4,8,5.4,11.9c0.5,1,1.7,1.5,2.6,2.3c-2.6-10.3-2.6-10.3-1.2-13.7
			c0.8,1.9,1.3,3.5,2,5.1c1.5,3.6,3.3,6.9,7,8.6c0,0.1,0.1,0.3,0.1,0.3l-0.2-0.2c-0.4-2.3-0.9-4.6-1.1-7c0-1.3,0-2.6,0.2-3.9
			c2.1,4.6,7.7,13.2,10.3,14.8c-1.4-4.6-4.2-8.8-2.8-13.6c1.2,1.9,2.1,4,3.2,5.9C136.7,170.6,139.2,173.4,143,174.7z M217.9,95.8
			c-0.5,0.4-1,0.8-1.5,1.3c-0.2,0.2-0.1,0.6-0.2,1c9.8,3.7,19.5,7.4,27.9,13.5l-0.4,0.8l-22.1-8.5l-2.3,0.3
			c-1.4-3.7-5.4-1.2-7.1-3.9l-4.2,2.3c2.7,0.7,4.7,1.2,6.8,1.6c8.4,2,16.5,5.1,24,9.3c2.9,1.6,5.8,3.4,9.2,3.5
			c3.1-2.5,5.5-9.1,6.2-17l-5.1,1.2l-0.2,0.7l1.8,0.4l-0.6,0.6l-4.7,0.4l0.1-0.3l-6.3-1.8l-0.4,0.8l11.7,7.1l-1.4,1.2
			c-4.6-4.3-10.3-5.7-15.9-7.6l-5.5-2.4c-0.6-1.4-2.2-1.7-4.1-0.7c-0.7-2.8-2.8-2.2-4.5-2.1L217.9,95.8z M220.3,176.5l1.2-0.9
			c-0.8-2.6-1.5-5.2-2.6-7.6c-1.6-3.8-3.5-7.4-5.3-11.1c-1.4-3-3-6-4.7-8.9c-0.9-1.4-2.5-2.4-4-3.7l0.4-1.4l-5-4.2
			c0.7,3.9,1.4,7.7,3.1,11.1c2.8,5.7,6.1,11.1,9.3,16.6c1.7,2.9,3.5,5.8,5.4,8.5C218.7,175.5,219.5,176,220.3,176.5L220.3,176.5z
			 M140.5,133.1l0.3-1.2c-7.6-0.4-8.1-7.3-11.2-11.8c-0.9,0-1.7-0.2-2.2,0c-4,2.1-8.1,4.3-12.1,6.5l0.2,2.9
			c-4.5-3.8-7.4-8.5-12.1-11.4l-4,2.9l1.1-0.6l9,10.7l0.6-0.5l-5.4-6l0.4-0.4l11.7,7.5l3.2-4.5l0.9,4.3l0.9,0.1l2.1-6.7l0.7-0.1
			l2.4,7.2c2.4-2.8,0-6.1,1.8-9.2l3.7,8.9L140.5,133.1z M186,141.9l-3.1-0.7c0.5,7.9,15.9,33.6,21.3,35.6c0-0.4,0-0.7-0.1-1.1
			c-3.2-7.5-6.3-15.1-9.7-22.6c-1.1-2.4-2.9-4.6-6-5.1c-0.2,0-0.4-0.3-0.5-0.4l0.1-2.2l-3.1-1.3L186,141.9z M229.6,174.3
			c-1.5-9.4-9.9-24.3-15.7-27.8c0.1-1.2,0.1-2.3,0.2-3.3l-3.6-1.4l1-2.3l-5.4-2.3c3.2,5.8,6.3,11,8.9,16.5
			C218.7,161.4,223,168.5,229.6,174.3L229.6,174.3z M229.5,144.4l0.9-2.2l-4-3.6c0.1-2.1,0.1-2.1-2.3-2.3
			c2.5,10.7,16,32.7,21.3,34.6c-1-6.8-7.3-18.7-11.8-22.5C233.7,146,232.2,144.7,229.5,144.4L229.5,144.4z M213.6,177.1l0.8-0.8
			c-0.1-0.5-0.2-0.9-0.4-1.4c-3.8-7.2-7.5-14.3-11.4-21.4c-2.2-4-5-7.5-9.1-9.7c-0.5-1.5-0.5-1.5-2.3-1.4c0.8,1.5,1.4,3,2.2,4.4
			c2.3,4,4.5,8.1,6.9,12c3.4,5.5,7,10.9,10.6,16.2C211.7,175.8,212.6,176.5,213.6,177.1L213.6,177.1z M216.7,139.2
			c3.3,13.3,14,22.2,19.7,34.1c0.4,0.1,0.8,0.1,1.2,0.1c0.4-0.1,0.8-0.3,1.2-0.5c-5.6-9.1-7.9-20-16.4-27.3c0.8-2.5-1.4-2.9-2.8-3.8
			C219.1,139.1,219.1,139.1,216.7,139.2L216.7,139.2z M231.5,136.7c1.7,2.6,3.4,5,4.8,7.4c3.8,6.6,7.3,13.3,11.1,19.9
			c1.1,1.6,2.4,3.1,3.9,4.5l0.7-0.5c-0.1-0.7-0.3-1.4-0.5-2.1c-2.4-6.7-5.1-13.3-9.2-19.2c-1.3-1.7-2.7-3.2-4.2-4.8
			c0.8-2.8-1.9-3-3.8-3.7c-0.1-0.6-0.2-1.2-0.3-1.9L231.5,136.7z M256.6,165c2.2-0.8,1.7-2.3,1.4-3.8c-1.9-7.8-7-13.6-11.2-19.6
			l-3.1-0.6v-2.3l-3.4-2c1.9,7.4,5.8,13.1,10,18.4c2,2.2,3.7,4.7,5,7.3C255.7,163.3,256.1,164.1,256.6,165z M195.6,92.3
			c-3.1,0.3-5.4,0.6-7.9,0.7c-1.1,0.1-2.2,0-3.3-0.3c-2.9-0.8-5.7-1.8-8.5-2.6c-1.1-0.3-2.3-0.5-3.4-0.6c0.2,0.7,0.7,1.3,1.4,1.7
			c7.7,3.7,16.2,5.2,24.7,4.1c5.1-0.6,9.9-2.9,13.5-6.6c0.5-0.6,0.9-1.2,1.2-1.8c-4.2,2.7-8.2,5.3-14,4.7l2.1-2
			C198.3,88.5,198.3,88.5,195.6,92.3L195.6,92.3z M227.6,85.7c8.5,3.6,17.2,5.3,26.4,3c1.7-0.5,3.2-1.3,4.6-2.4c1.4-1,2.4-2.4,2-4.4
			c-1.7,1.2-3.3,2.6-5.1,3.3s-3.8,0.5-5.9,0.8l2.1,1.1C243.2,89.3,235.4,86.8,227.6,85.7L227.6,85.7z M107.9,86.3
			c2.1,7.7,17.9,10.3,30.6,4.9c-5.4,0-10.4,2-15.9,1l1-2.5c-1.6-1-2.9-1.9-4.4-0.1c0.3,0.2,0.6,0.5,0.9,0.8c0.3,0.4,0.5,0.7,0.8,1.1
			C116.6,91.4,116.6,91.4,107.9,86.3L107.9,86.3z M160.3,119.3l9.7,8.3l0.7-0.7l-7.4-8.4c2.5-0.7,3.6,0.8,4.7,2.4s1.8,3.1,4.2,3.4
			c-1.9-4.1-2.8-5-5.5-7.2c-0.9-0.8-1.5-1.9-1.8-3c-0.5-1.5-1-2.7-3.3-2.8l1.6,4.3L160.3,119.3z M132.1,98h-14.7l0.3,3.5h14
			L132.1,98z M164.1,126.4c-0.3-3.2-3.7-3.3-5.2-5.2s-2.4-4.6-5.9-5.3l3.3,5.6h-3.5l-1.8-2.9c-0.3,3.6,2.1,4.8,4.8,6l1.7-1.4
			C160.3,123.3,160.8,127.4,164.1,126.4L164.1,126.4z M170.8,117.1c2.1,3.2,4.1,6.7,9.9,5.7c-3.8-3.2-7-6.1-10.3-8.8
			c-0.6-0.5-1.8-0.4-2.7-0.5l-0.4,1.1C168.4,115.3,169.5,116.1,170.8,117.1L170.8,117.1z M173.8,97.9c1.2,0.5,2,0.8,2.8,1.2
			c0.6,0.4,1.3,0.7,1.9,0.9c3.7,0.6,7.4,1.1,11.1,1.5c0.6,0.1,1.4-0.4,2.8-0.9l-18.6-4.1V97.9z M146.7,125l0.6-1l5.9,3l0.4-0.6
			L148,121c-2.1,2.7-4.6,0.3-7.1,1.1c3.2,1.6,4.6,5.3,8.3,6.2L146.7,125z M258.3,106c-0.5,5.6-1,10.7-1.5,16.4l2.8-1.8l-0.7-0.4
			l2-9.5C260.3,109.5,259.5,108,258.3,106L258.3,106z M262.6,150.5c-0.5-6.2-4.9-12.5-9.1-13.2C256.5,141.6,259.4,145.7,262.6,150.5
			L262.6,150.5z M248.5,27l-6.4-5.4C242.4,25.6,243.6,26.8,248.5,27z M143.6,129.3l0.7-0.7c-1.7-1.8-3.3-3.7-5-5.6l-0.6,0.6
			C139.4,126.3,141.5,127.8,143.6,129.3z M140.5,98.8v-3.6l-3,1l0.3,3.5L140.5,98.8z M207.5,114.1c1.1-4.2,0.7-5.3-2.5-6
			L207.5,114.1z M136.1,100.3c-0.1-1.4-0.1-2.3-0.2-3.5l-2.7,0.6l0.2,3.2L136.1,100.3z M243.2,97.1l1.1-3.1h-3.6
			c-0.1,1-0.2,1.8-0.3,2.8L243.2,97.1z M229.2,131.3l0.1,0.7c2.3-0.2,4.7,0.8,6.9-0.8l-0.1-0.9L229.2,131.3z M212.1,111.5l1.8-1.6
			l-2.7-1.2c0,4.9,0.5,5.8,3.1,5.4L212.1,111.5z M92.7,126l5.3,0.9C95.6,123.6,95,123.5,92.7,126z M144.9,94.1l-1.1-0.5
			c-0.5,0.7-0.8,1.5-1.1,2.4c0,0.7,0.2,1.4,0.5,2l1.7-0.7V94.1z M225.8,93.7l2.4,0.6c0.4-1,0.7-2,1.1-3.2l-2.7-0.4
			C226.3,91.7,226.1,92.5,225.8,93.7L225.8,93.7z M180.6,126.2l4.2,1.5l0.4-0.9l-2.8-2.2L180.6,126.2z M248.5,94.2l-3-0.2l-0.2,3
			l0.9,0.4L248.5,94.2z M221.7,113.6l0.6-0.8c-0.8-1.1-1.2-2.8-3.8-1.7L221.7,113.6z M197.2,100.9l-0.1-1.1l-4.6,0.2l0.1,0.9H197.2z
			 M178.2,129.5c-2-2.9-2.4-2.9-3.9-0.7L178.2,129.5z M239.8,122.7l0.9,0.6l1.8-2.8C240.2,120.2,240.1,121.4,239.8,122.7
			L239.8,122.7z M115.4,97l-1.2,0.1l0.4,3.3l1-0.1L115.4,97z M147.7,95h1.1c-0.1-1.1-0.3-2.2-0.5-3.3l-0.9,0.1
			C147.5,92.9,147.6,94,147.7,95L147.7,95z M231,95.3c2.1-0.2,1.8-1.7,2.4-2.9l-1.6-0.3L231,95.3z M165.4,91.1l0.1,2.5l2.6-0.7
			L165.4,91.1z M228.1,126.6l3.2-1.9l-2.3-1.1C228.7,124.4,228.6,125,228.1,126.6L228.1,126.6z M199.3,99.6l0.3,0.9
			c0.6,0,1.1-0.1,1.7-0.2c0.5-0.2,1-0.5,1.5-0.9l-0.2-0.5L199.3,99.6z M158.7,115.9c0.6-1.7,0.3-2.7-1.9-2.4L158.7,115.9z
			 M187.2,89.2l-0.2-0.7l-2.7,0.5l0.2,1L187.2,89.2z M126.1,88.6v0.9l2.6,0.1v-0.9L126.1,88.6z M146.1,119.1l-1.3-1.3l-1.4,1.9
			l0.8,0.9L146.1,119.1z M151.4,92.5l0.8-0.1l-0.1-2.2l-0.9,0.1L151.4,92.5z M137.9,121.4l0.8-0.4l-0.9-2.2l-0.9,0.4L137.9,121.4z
			 M189.9,89.9l0.4,0.8l2.1-0.8l-0.2-0.7L189.9,89.9z M207.5,97.9l-0.4-0.7l-1.8,0.8l0.3,0.6L207.5,97.9z M167.9,111.1l0.8-0.7
			l-1.8-1.6l-0.5,0.5C166.9,109.9,167.4,110.5,167.9,111.1L167.9,111.1z M251.9,130.9l0.1-0.5l-1.5-0.3l-0.1,0.3L251.9,130.9z
			 M159.9,131.2v-0.5h-2.7v0.5H159.9z M196.7,88.8l-0.9-0.9l-1.1,0.9l1,1L196.7,88.8z M116.3,88.1l0.1-0.7l-1.8-0.2l-0.1,0.5
			L116.3,88.1z M240.4,84.6v-0.4l-2.1,0.1v0.3H240.4z M228.1,114.1l-0.2,0.5l1.7,0.6l0.2-0.6L228.1,114.1z M261.9,139l-0.6,0.2
			l0.4,1.4l0.6-0.1L261.9,139z M93.2,122.4l0.3-0.7l-1.3-0.7l-0.3,0.5L93.2,122.4z M151.6,114l0.2-0.6l-1.2-0.4l-0.2,0.6L151.6,114z
			 M172.4,108.6l0.4-0.1l-0.2-0.9l-0.5,0.2L172.4,108.6z M251.4,127.4l-0.1-0.7l-1,0.4l0.1,0.3H251.4z M246.2,83.9l-0.1-0.5
			l-1.2,0.2V84L246.2,83.9z M162.8,91.4C162.9,91.9,162.8,91.7,162.8,91.4z M143,116.1l-0.1-0.4l-0.7,0.2c0,0.1,0,0.2,0.1,0.3
			C142.6,116.2,142.8,116.1,143,116.1z M235.5,95.8l0.1-0.2h-0.2L235.5,95.8z M167.5,94.9l-0.2-0.2c-0.1,0.1-0.2,0.1-0.2,0.2
			s0.1,0.2,0.2,0.2L167.5,94.9z"/>
		<path d="M304.3,257.8v-8.3h5.9c0.3-1.5,0.6-2.9,0.7-4.4c0-11.7,0-23.5,0-35.2c-0.1-1.5-0.3-2.9-0.6-4.3l-5.9-1v-8.2
			c1-0.1,2-0.2,3.1-0.2c10.6,0.1,21.2,0.2,31.8,0.3c1.8,0,3.5,0.1,5.2,0.3c7.2,1,11.7,4.9,13,12c0.6,3.2,0.6,6.5,0.2,9.7
			c-0.5,5-4.1,9.1-9,10.3c2,2,4.4,3.5,5.5,5.7s1.4,5.3,1.6,8c0.4,3.9,0.4,7.7,0.5,11.6c0.1,2.3,0.2,2.3,2.2,3.8
			c1.7-1,1.6-2.6,1.7-4.2s0-3.2,0-5.2l5,0.9c0.6,5.1,0.4,10.2-1.5,15c-1.5,3.7-4.4,5.3-8.4,4.9c-8.9-0.8-14.5-6.1-15.4-15
			c-0.4-4.2-0.3-8.5-0.5-12.7c-0.3-6.9-1.8-8.5-8.8-8.9c-0.7,0-1.5,0-2.9,0v4.7c0,3.5,0,7,0,10.5c0.1,4.3,0.6,4.9,4.7,5.8
			c0.6,0.1,1.2,0.2,2,0.4v9.2L304.3,257.8z M346.4,205.3h-0.2H346.4c0.1,0.5,0.1,1.2,0.3,1.6c2.9,3.9,3,8,1.2,12.3
			c-0.2,0.6-0.3,1.3-0.4,1.9C352.9,215.4,352.3,209.6,346.4,205.3z M349.6,257.6h0.2H349.6c-0.2-3.8-0.4-7.6-0.6-11.4
			c0-2-0.2-4-0.6-5.9c-0.4-1.4-1.5-2.6-2.3-3.8l-0.4-0.3l0.5,0.2c0.2,4.2,0.5,8.4,0.6,12.6C346.8,252.1,347.8,255.1,349.6,257.6z
			 M328,223.4c2.2,0.1,4.1,0.4,6.1,0.4c4.2,0,6.1-1.6,6.8-5.4c1-6.1-0.8-10.8-4.6-11.7c-2.6-0.6-5.3-0.5-8.2-0.8L328,223.4z
			 M318.6,205c-1.1,14.5-1.1,29,0,43.5C320.6,244.4,320.7,209.5,318.6,205z"/>
		<path d="M40.3,226.8c2.1,0.8,3.7,1.2,5.1,1.9c4,1.7,6.8,5.4,7.2,9.8c1.1,10.1-1.9,17.4-11.5,21.1c-5.7,2.2-11.7,3.4-17.6,4.9
			c-7.7,1.9-15.5,3.5-23.6,5.3v-9.9l5.8-2c0.3-1.5,0.5-3.1,0.6-4.7c0.1-13.7,0.1-27.5,0-41.2c-0.1-1.6-0.3-3.1-0.5-4.7L0,206.4v-9.6
			c1-0.1,1.9-0.3,2.9-0.3c9.2-0.1,18.5-0.2,27.7-0.2c2.2,0,4.5,0.1,6.7,0.4C48,198,53.1,206.9,49.2,217c-1.2,3-3.2,5.7-5.9,7.6
			C42.5,225.2,41.6,225.8,40.3,226.8z M40.2,219.1c5-5,4.3-11.9-1.5-15.1h-0.3l0.3-0.1c0,0.2-0.2,0.6-0.1,0.7
			c3.2,3.8,3.7,9.1,1.5,13.6c-0.1,0.3,0.1,0.7,0.1,1.1l-0.3,0.1L40.2,219.1z M41.8,249.1c5.3-5.5,4.4-13.1-2.1-15.3
			c3.7,4.1,4.4,8.6,2.3,13.6C41.9,248,41.8,248.6,41.8,249.1l-0.2,0.1L41.8,249.1z M23.7,254.8c2-0.4,3.4-0.6,4.9-0.9
			c3-0.8,5.5-2.5,6.1-5.5c0.7-3.3,0.9-6.6,0.5-9.9c-0.5-4.2-3.2-5.9-7.4-5.8c-1.4,0.1-2.7,0.3-4.1,0.6L23.7,254.8z M23.8,206.2v17.9
			c3.8,0,7.4-0.3,9.2-3.9c1.9-3.9,2.1-8.1-0.2-11.8C30.8,205.1,27.2,205.9,23.8,206.2L23.8,206.2z M14.3,257.2
			c1.9-5,1.8-47.5,0.1-51.5C13.1,211.5,12.9,246.5,14.3,257.2L14.3,257.2z"/>
		<path d="M162,220.3c1.2,0.4,2.1,0.8,3,1.1c2.2,0.8,3.7,2.7,4,5c0.4,3.3,0.6,6.7,0.8,10.1c0.1,2.4,0.1,2.4,2,4.1
			c2.9-1.4,1.6-4.4,2.4-6.9h4.2c2.6,8.2-2,15.2-10.6,15.6c-1.9,0.1-3.7,0-5.6-0.2c-5.5-0.7-8.5-3.9-8.9-9.4c-0.2-2.9,0-5.8-0.2-8.6
			c-0.4-4.9-1.6-6-6.6-6.1c-1.6,0-3.2,0-4.9,0v15.9l6.7,1v6.8l-30.6,1.9v-7.2l6.2-1.5v-37.7l-6.1-1.1v-6.9c1-0.1,1.9-0.2,2.9-0.2
			c11.1,0,22.2-0.1,33.4,0c3.2,0.1,6.4,0.6,9.6,1.5c5.4,1.6,7.9,5.3,8.1,10.9c0.2,4.9-2.2,8.6-7.1,10.9
			C163.9,219.5,163.1,219.8,162,220.3z M159.4,203.3c-0.1-0.2-0.3-0.4,0.1,0.2L159.4,203.3c2.1,4.1,2.9,8.3,0.5,12.6l0.1,0.2
			l-0.2-0.2c3.2-0.6,3.1-3.4,3.3-5.7C163.4,207.2,162.7,204.5,159.4,203.3L159.4,203.3z M162.8,240.4l0.2-0.1L162.8,240.4
			c0.1-5,0.4-9.9-2.1-14.4c-0.2,2.4,0.1,4.7,0.1,7C160.6,235.6,161.3,238.3,162.8,240.4L162.8,240.4z M141.4,218
			c3.5-0.4,6.5-0.4,9.3-1.1s4.1-3.2,3.9-6.8s-1.3-5.5-4.4-6c-2.8-0.4-5.7-0.6-8.5-0.7c-0.1,1.1-0.3,1.7-0.3,2.3
			C141.4,209.5,141.4,213.4,141.4,218z M132.2,238.8c2-5.7,1.6-30.6-0.3-33.6C130.8,216.4,130.9,227.6,132.2,238.8z"/>
		<path d="M282.1,237.9l-5.7-0.8c-2.2-9.9-2.5-10.1-8.6-9.6V245c5.2,0.4,10.3,0.9,15.3,1c2.7,0.1,4.4-1.8,5.1-4.3
			c0.9-3.3,1.5-6.8,2.4-10.6l7.7,0.7v24.8l-53.9-6.2v-7.1l5.6-0.4c0.4-1.3,0.7-2.6,0.8-4c0.1-10.2,0-20.5,0-30.8
			c-0.1-1.3-0.3-2.6-0.6-3.9l-5.9-1.1v-7h53.7c0.1,7.3,0.1,14.6,0,22.1h-7.7c-0.7-2.3-1.2-4.6-2-6.8c-1.4-4.4-4.5-6.9-9.1-7.1
			c-3.7-0.2-7.5,0-11.5,0v15.1c5.9,1.1,6.6,0.4,8.6-8.2h5.7L282.1,237.9z M259.7,205.4l-1.2,0.1c-0.1,6.2-0.4,12.4-0.4,18.5
			s-0.4,12.3,1.2,18.3C260.8,230,260.9,217.7,259.7,205.4z"/>
		<path d="M240,221.8v6.8l-5.3,0.8c-1.3,7-0.1,13.8-0.8,20.9l-8.9-0.5l-2.1-3.1c-4.8,2.5-10.2,3.7-15.6,3.4
			c-14.6-0.6-24.2-9.8-25.2-24.4c-0.6-7.8,0.4-15.2,5.4-21.6c4.3-5.7,10.8-9.2,17.9-9.6c5.9-0.5,11.7-0.1,17.1,3.3l1.9-2.5h7.9v21.5
			h-8.6c-0.9-2.8-1.7-5.7-2.8-8.4c-1.6-3.7-4.4-6-8.6-6.1c-3.3-0.3-6.5,1.6-7.9,4.6c-0.2,0.4-0.4,0.9-0.6,1.4
			c-2.6,9.1-2.6,18.7,0.1,27.7c1.7,5.6,7,7.8,12.3,5.6c0.2-0.1,0.4-0.3,0.9-0.7c1.3-3.7,1.1-7.7,0.1-12l-5-1.1v-6.4
			C215,220.4,234.2,220.7,240,221.8z M198.7,203.6l-1,0.5c-0.9,1-2.2,1.8-2.6,3c-1.5,3.8-3.2,7.6-3.8,11.6
			c-1.3,7.2,0.6,14.7,5.2,20.4c0.9,1.1,1.7,2.9,3.8,2.3c-0.1,0.2-0.1,0.4-0.1,0.2v-0.1c-8.5-10.9-9.5-22.6-3.3-34.9
			c0.4-0.8,0.7-1.6,0.9-2.4L198.7,203.6c-0.1-0.2,0-0.4,0-0.4L198.7,203.6z M226,240.3c1.8-4.7,1.6-12.1-0.2-14.6
			C224.4,230.5,224.4,235.6,226,240.3z"/>
		<path d="M98,204.3l-5.9-0.5v-7.6h23.3v7l-5.8,1.1c-0.2,1.7-0.5,3.2-0.5,4.8c0,8.1,0,16.2,0,24.4c0,10.8-4.4,16.9-14.7,20.4
			c-5,1.7-10.3,2.5-15.6,2.2c-9.8-0.4-15.2-5.9-15.3-15.7c-0.1-10,0-20-0.1-30c0-1.7-0.3-3.4-0.5-5.3l-6-0.5v-8.3h30.3v7.4l-6.3,1.2
			c-0.2,1.8-0.4,3.1-0.4,4.4c0,8.9-0.1,17.7,0,26.6c0,2.2,0.3,4.5,1,6.6c0.5,1.5,1.6,2.7,3,3.5c5,2.3,12.1-1.3,13.4-6.7
			c0.4-1.8,0.6-3.7,0.6-5.6c0.1-8.1,0.1-16.2,0-24.4C98.5,207.7,98.3,206,98,204.3z M72,204.4c-1.6,8.9-1.5,30.5,0,36.6
			C73.7,236.2,73.8,210.9,72,204.4z M103.3,235.6c1.9-4.4,1.8-26.7,0-30.6V235.6z"/>
		<path d="M223.3,30.8c2.1,3.4,4.3,6.8,6.3,10.3c0.7,1.2,0.7,2.7,1,4l0.1-0.1c-0.9-0.7-2.2-1.3-2.8-2.2c-3.2-4.8-6.2-9.8-9.3-14.8
			c-0.4-0.9-0.7-1.8-0.9-2.7l3.3,3.1l1.6-1.1l-0.1-0.1c0.6,0.6,1.2,1.5,1.9,1.8c1.5,0.4,3.1,0.6,4.7,0.7l0.6-0.9l-2.7-1.7l1.5-1.1
			c-0.8-3.1-3.6-4.3-5.7-5.7l-3.1-5.3l0.4-0.6l3.8,2.6h5.1l0.3-0.6l3.3,3c0,3.2-2,3.5-4.4,4c1.5,1.9,2.8,3.4,4,5
			c2.1,2.9,4.2,5.9,6.2,8.9c0.9,1.3,0.8,1.4-0.2,3.2c-3-2.5-3.4-7.1-6.7-9.1l-0.8,0.4c0.2,1.1,0.4,2.1,0.6,3.1l-8.2-4.1l-0.2-0.1
			L223.3,30.8z M225,19.2c1.4,1,2.8,2.2,5.2,1.1C228.6,18.3,226.8,18.7,225,19.2z"/>
		<path d="M203,16.3c2.9,2.4,4.7,2.6,8,0.6c-1.7-2.6-5.9,0.4-7.2-3.2c7.3,0.2,10.8,2.1,11.9,7.2l-2.9-2.1l-5.5,1.6l1.2,4.1l-1,0.5
			l-2.8-4.8C204.1,18.9,201.3,18.8,203,16.3z"/>
		<path d="M210.7,28.5c4.1,5.9,7.9,11.6,11.8,17.3l-0.5,0.7c-0.8-0.4-2.1-0.6-2.5-1.2c-3.1-5.1-6-10.2-9-15.4
			C210.4,29.7,210.6,29.2,210.7,28.5z"/>
		<path d="M148,14.3c-0.3,4.4-3.8,5.5-9.9,3.1l2.1-3.5l4.7-1.1L148,14.3z M140.2,16.2l0.3,0.8l5-2C142.1,14,142.1,14,140.2,16.2
			L140.2,16.2z"/>
		<path d="M183.4,19.5c2,3.1,4.5,2.6,7.7,1.3l-4.7-1.4V19l5.7-0.8c2,0.8,2.7,2,1.7,4.2c-3.2,1.2-6.7,1.9-10.1-0.2
			c-0.5-0.3-0.6-1.4-0.9-2.1L183.4,19.5z"/>
		<path d="M158.6,22.6c-1.7,4.9-6.2,6-10.2,2.7C150.3,22.7,154.7,21.4,158.6,22.6z M150,24.6l0.5,1.3l5-1.9l-0.4-1.1L150,24.6z"/>
		<path d="M190.9,8.4c3.3-1.4,4.3-1.2,7.1,1.4c0,0.1,0.1,0.3,0.1,0.3c-0.4,0.7-0.9,1.4-1.5,2.4c-2.6-1.1-6,0-8.4-3.4l2.9-0.8
			l-0.8,1.4h4c-0.3-0.6-0.9-1-1.5-1.2C192.1,8.5,191.5,8.4,190.9,8.4z"/>
		<path d="M128.6,27l-2.4,3c3.1,0.9,4.6-0.6,6.1-2.8l-2.6-1.6l4.4-0.2l0.8,3.3l-2.8,2.6c-1.7-0.2-3.8,1.7-6.1-0.1
			c-0.5-2.3,0.6-3.6,2.9-4.1L128.6,27z"/>
		<path d="M165.7,10.8c3.7-0.6,6.7-3.1,9.7,0c-1.1,3.5-3.1,4.3-8.9,3.4C166.3,13.3,166.1,12.3,165.7,10.8z M166.6,12.4
			c2.7,1.4,3.6,1.2,6.4-1.2C170.6,10.3,168.6,10.2,166.6,12.4L166.6,12.4z"/>
		<path d="M158.6,7.7L156,6.3c0,0.1,0,0.1,0,0l3.8,0.5c0,3.3-1.4,4.7-4.4,4.8c-3.4,0.1-4.6-0.9-4.9-4.1c0.4-0.2,0.8-0.4,1.2-0.6
			c0.7-0.1,1.4-0.1,2.2,0l-2.6,1.1C153.1,11,154.4,11,158.6,7.7z"/>
		<path d="M244.1,48.9c-1-0.6-1.9-1.3-2.7-2.2c-0.9-1.4-1.7-2.8-2.4-4.3l1.7-1.4l4.1,6.1l-0.8,1.9L244.1,48.9z"/>
		<path d="M108.7,58.4c0.2,2.1,0.4,4.1,0.7,6.8C106.7,62.6,106.6,61.5,108.7,58.4z"/>
		<path d="M116.6,64.7c-2.3-2.5-1.8-4.8-1.1-7.9C116.6,59.6,117.8,61.6,116.6,64.7z"/>
		<path d="M122.5,56.6c1.3,2.2,2.5,3.9,2.3,6.4C122.5,61.7,122,60.4,122.5,56.6z"/>
		<path d="M133.2,60.8c-1.9-1.4-2.2-3.3-1.4-5.8c0.8,1.7,1.6,3.5,2.5,5.2L133.2,60.8z"/>
		<path d="M160.3,51l-1.9-4.7l0.8-0.3c1.6,1.2,1.9,2.9,1.9,4.7L160.3,51z"/>
		<path d="M195,34.1c-1.8-1.3-2.9-2.3-2.2-4.6C194.9,30.5,195.2,31.9,195,34.1z"/>
		<path d="M200.2,24.7l2,4l-1,0.6l-2.3-3.9L200.2,24.7z"/>
		<path d="M138.9,53.6l1.3,4.1l-1,0.4l-1.6-4.1L138.9,53.6z"/>
		<path d="M103.1,60.2c-0.1,1.5-0.2,2.9-0.3,4.4H102v-4.4L103.1,60.2z"/>
		<path d="M154.1,53.5c-0.5-1.2-1-2.5-1.7-4.2C155,50.5,155,50.5,154.1,53.5z"/>
		<path d="M167.8,47.4l-1.4-3.3c2,0.3,3.1,1.2,2.4,2.9L167.8,47.4z"/>
		<path d="M146,51.8l1.6,4l-1,0.4l-1.7-3.9L146,51.8z"/>
		<path d="M187.2,37.1l-1.6-2.8l1.1-0.6c0.5,1,1,1.9,1.5,2.9L187.2,37.1z"/>
		<path d="M181.2,41.2l-2-2.8l1-0.7l1.9,2.8L181.2,41.2z"/>
		<path d="M173.9,44.1l-1.8-2.9C173.9,42,173.9,42,173.9,44.1z"/>
		<path d="M187,24.8l2,1.6l-0.5,0.7l-2.2-1.5L187,24.8z"/>
		<path d="M95.8,61.9l0.2,2.3l-0.8,0.1l-0.1-2.3L95.8,61.9z"/>
		<path d="M132.7,36.8l-1.8-1.5l0.6-0.8l1.8,1.4L132.7,36.8z"/>
		<path d="M175.7,17.2l-0.5,1.7l-2.2-1.2l0.2-0.6l2.6,0.2L175.7,17.2z"/>
		<path d="M196.7,17.1l2.6,1.3l-0.6,1.1l-2.5-1.5L196.7,17.1z"/>
		<path d="M151.2,37c0.5,0.4,0.9,0.9,1.4,1.3l-0.5,0.6l-1.6-1.2L151.2,37z"/>
		<path d="M106.8,55.5l1.2-2.6l0.7,2.3L106.8,55.5z"/>
		<path d="M129,51.8l-0.5-1.8l0.8-0.2l0.6,1.8L129,51.8z"/>
		<path d="M97.1,56.6l0.5-2.6l0.8,0.2l-0.6,2.5L97.1,56.6z"/>
		<path d="M103.1,53.9l-0.4,2.2l-0.8-0.1l0.5-2.2L103.1,53.9z"/>
		<path d="M173.5,28.6l1.5,1.6l-0.5,0.6l-1.8-1.5L173.5,28.6z"/>
		<path d="M209.4,10.6l1.9,1.3l-0.6,0.8c-0.6-0.5-1.2-0.9-1.8-1.4L209.4,10.6z"/>
		<path d="M183.2,30.8l-1.2-1.5l0.5-0.6l1.5,1.4L183.2,30.8z"/>
		<path d="M128.8,39l-1.7-1.9l0.6-0.6l2,1.7L128.8,39z"/>
		<path d="M108,34.3l2.5,1.6l-0.2,0.6c-0.5,0-0.9-0.1-1.3-0.2C108.6,36,108.5,35.5,108,34.3z"/>
		<path d="M114.7,54.6v-1.6l0.6-0.1l0.3,1.7L114.7,54.6z"/>
		<path d="M122.1,51.2l0.3,1.9l-0.8,0.1l-0.2-1.9L122.1,51.2z"/>
		<path d="M171.6,37.6l-1-1.7l0.8-0.7l1.4,1.3L171.6,37.6z"/>
		<path d="M153.4,13.4l1.6,1.2l-1.1,1.1l-1.5-1.3L153.4,13.4z"/>
		<path d="M101.5,47.4l-0.8,1.9l-0.4-0.2l0.6-2.2L101.5,47.4z"/>
		<path d="M108.7,49.3l0.4-1.5l0.6,0.1v1.5L108.7,49.3z"/>
		<path d="M160,40.2l0.2,1.6l-0.8,0.1l-0.2-1.5L160,40.2z"/>
		<path d="M176.5,32.2l1.4,0.9l-0.3,0.6l-1.6-0.6L176.5,32.2z"/>
		<path d="M111.6,32.3l1.3,1.6l-0.4,0.5l-1.4-1.1L111.6,32.3z"/>
		<path d="M162.3,23.1l-0.9-0.8l0.2-0.4l1.2,0.4L162.3,23.1z"/>
		<path d="M181,15.7l-1.6-0.4l0.2-0.7l1.6,0.4L181,15.7z"/>
		<path d="M151.6,43.6l1.3,0.8l-0.4,0.6l-1.3-0.8L151.6,43.6z"/>
		<path d="M199.9,9.1l-1.2-0.8l0.3-0.5l1.5,0.7L199.9,9.1z"/>
		<path d="M157.4,37.5l-0.9-1.6l0.6-0.3l0.8,1.6L157.4,37.5z"/>
		<path d="M136.6,33.2l1.1,0.9l-0.3,0.5l-1.4-0.6L136.6,33.2z"/>
		<path d="M159.9,23.6l1.3,1.1l-0.4,0.5l-1.2-1.1L159.9,23.6z"/>
		<path d="M119.6,19.5h0.9l-1.6,2.4v-1.6L119.6,19.5z"/>
		<path d="M175.8,17.3l1.9-0.5l0.1,0.8l-2.1-0.4L175.8,17.3z"/>
		<path d="M129.6,16.9l0.2-1.1l0.9,0.4l-0.6,0.9L129.6,16.9z"/>
		<path d="M157.7,14.9l-1.4-0.6l0.2-0.5l1.4,0.6L157.7,14.9z"/>
		<path d="M137,49.5l-0.3-1.7l0.7-0.1l0.2,1.7L137,49.5z"/>
		<path d="M165.6,39.2l-0.9-0.8l0.3-0.5l1.1,0.6L165.6,39.2z"/>
		<path d="M104.6,48.2l-0.6,1c-0.2-0.3-0.3-0.6-0.3-0.8c0-0.1,0.3-0.3,0.5-0.4L104.6,48.2z"/>
		<path d="M134.3,14.9l-0.8,0.2l-0.1-0.6l0.9-0.2L134.3,14.9z"/>
		<ellipse cx="144.7" cy="46.6" rx="0.2" ry="0.8"/>
		<path d="M197.6,38.4c-0.2-0.2-0.4-0.5-0.1-0.1L197.6,38.4L197.6,38.4z"/>
		<path d="M149.7,60.8L149.7,60.8C149.5,60.2,149.6,60.6,149.7,60.8L149.7,60.8z"/>
		<path d="M183.7,44.8l-0.2,0.1L183.7,44.8L183.7,44.8z"/>
		<path d="M156.3,58L156.3,58L156.3,58z"/>
		<polygon points="126.6,66.7 126.3,66.7 126.5,66.8 		"/>
		<path d="M128.6,27.1l0.2-0.3L128.6,27.1L128.6,27.1z"/>
		<path d="M222.6,27.3v-0.4l-0.1,0.3L222.6,27.3z"/>
		<path d="M163.2,54.8c-0.1-0.1-0.2-0.2-0.1-0.1C163,54.6,163,54.7,163.2,54.8L163.2,54.8z"/>
		<path d="M159.9,152.6c-2.9-1.8-2.9-4.6-3.1-7.2C158.1,147.6,160.4,149.2,159.9,152.6z"/>
		<path d="M103.2,161.5l-0.9-7l0.8-0.1c1.3,1.9,1.7,4.1,1.7,6.6l-1.7,0.4L103.2,161.5z"/>
		<path d="M163.9,161.3c-2.1-1.1-2.3-3.2-3-5.1l0.9-0.6l3.2,5L163.9,161.3z"/>
		<path d="M155.1,153.9l2.3,5.7l-1.1,0.5l-2.5-5.6L155.1,153.9z"/>
		<path d="M169.1,153.9c2.3,1.2,3.2,3.2,3.9,6.4C170.9,158.8,169.5,156.5,169.1,153.9L169.1,153.9z"/>
		<path d="M123.3,156.7l-0.5-4.6c2,1.7,2,1.7,1.4,4.5L123.3,156.7z"/>
		<path d="M128.1,141.5c-0.9-1.1-3.1-1.6-2-4C128.3,138,128.7,139.5,128.1,141.5z"/>
		<path d="M130.6,153.6c0.2,1.5,0.5,3,0.7,4.5l-0.9,0.1c-1-1.3-1.4-2.9-1-4.5L130.6,153.6z"/>
		<path d="M133.1,137.6l1.6,3.6l-1,0.5l-2-3.5L133.1,137.6z"/>
		<path d="M165.7,149.2l-2.7-4.4l0.8-0.5l2.8,4.3L165.7,149.2z"/>
		<path d="M121.4,137.1l1.9,3.4l-1,0.6l-2.2-3.1L121.4,137.1z"/>
		<path d="M146.4,155.9c0.3,1.2,0.7,2.4,1,3.5l-0.9,0.3c-0.4-1.1-0.9-2.2-1.3-3.4L146.4,155.9z"/>
		<path d="M108.1,147.7v3.9C106.4,149.8,106.4,149.8,108.1,147.7z"/>
		<path d="M114.9,149.9l0.4,3.5l-1,0.2l-0.9-3.4L114.9,149.9z"/>
		<path d="M102.4,146.6l0.3,3.2l-1,0.1l-0.3-3.2L102.4,146.6z"/>
		<path d="M140.8,141.1l1.4,2.3l-1,0.5l-1.3-2.4L140.8,141.1z"/>
		<path d="M150.4,146.8l-1.7-2.4l0.8-0.6l1.8,2.3L150.4,146.8z"/>
		<path d="M139.6,154.6l0.2,2.5l-0.9,0.1l-0.4-2.5L139.6,154.6z"/>
		<path d="M177.5,150.2c0.3,1,0.5,1.9,0.8,2.9l-0.9,0.3l-1-2.8L177.5,150.2z"/>
		<path d="M109.9,137.5l2.1,0.1C110.9,139.3,110.9,139.3,109.9,137.5z"/>
		<path d="M144.6,153.1l-0.5-1.7l0.6-0.2l0.8,1.5L144.6,153.1z"/>
		<path d="M152.5,149.4l0.7,1.3l-0.6,0.3l-0.6-1.3L152.5,149.4z"/>
		<path d="M107.5,138.9h-1.2v-0.6h1.2V138.9z"/>
		<path d="M114.8,137.9l1.3,0.4l-0.2,0.6l-1.3-0.3L114.8,137.9z"/>
		<path d="M169.2,153.9l-0.3-0.2L169.2,153.9L169.2,153.9z"/>
		<path d="M166.1,164.4l-0.1-0.1v0.2L166.1,164.4z"/>
		<path d="M108.4,108.5l-3.8,1.8l-0.3-0.6l3.7-2.3L108.4,108.5z"/>
		<path d="M109.9,113.4c1.6-2.2,1.6-2.2,3.6-1.7L109.9,113.4L109.9,113.4z"/>
		<path d="M114.5,116.4l1.3-1.6l0.5,0.6l-2,0.9L114.5,116.4z"/>
		<path d="M109.9,113.3l-0.8,0.8l0.1,0.1L109.9,113.3L109.9,113.3z"/>
		<polygon points="121.8,115.3 121.8,115.6 121.8,115.4 		"/>
		<path d="M114.4,116.3c-0.1,0.2-0.2,0.3-0.1,0.2C114.2,116.5,114.3,116.5,114.4,116.3L114.4,116.3z"/>
		<path d="M102.9,104.8l0.1,0.4C102.9,105.2,102.9,105,102.9,104.8L102.9,104.8z"/>
		<path d="M184.5,117.8l-5.7-2.8C183.3,114.3,183.7,114.5,184.5,117.8z"/>
		<path d="M197.8,120.8l-2.8,0.6l-2.4-3.3C195.2,117.5,196.3,119,197.8,120.8z"/>
		<path d="M248,114.8l-1.6-0.6l0.2-0.6l1.6,0.7L248,114.8z"/>
		<path d="M171.3,134.9l0.1,0.1L171.3,134.9z"/>
		<path d="M90.3,131.4L90.3,131.4L90.3,131.4z"/>
		<path d="M130,99.2v1.2l-0.4,0.1l-0.3-1.2L130,99.2z"/>
		<path d="M118.9,99.2l0.6,0.5l-0.6,0.6l-0.4-0.7L118.9,99.2z"/>
		<path d="M109.9,95.3c0.6,1.3,1.4,2.6-0.8,3.1L109.9,95.3z"/>
		<path d="M251.2,95.9l-0.3,0.1h0.2L251.2,95.9z"/>
		<path d="M221.8,91.8l-0.1-1.6l0.6,0.2L221.8,91.8L221.8,91.8z"/>
		<path d="M227.4,92.3l-0.2,0.1c0-0.1-0.1-0.2-0.1-0.3c0,0,0.1,0,0.2-0.1L227.4,92.3z"/>
		<path d="M170,96.1l0.8-0.8l0.3,0.5L170,96.1L170,96.1z"/>
	</g>
</g>
</svg>
